G04 #@! TF.FileFunction,Legend,Top*
%FSLAX46Y46*%
G04 Gerber Fmt 4.6, Leading zero omitted, Abs format (unit mm)*
G04 Created by KiCad (PCBNEW 4.0.7-e2-6376~58~ubuntu16.04.1) date Wed Jan 17 09:18:42 2018*
%MOMM*%
%LPD*%
G01*
G04 APERTURE LIST*
%ADD10C,0.100000*%
%ADD11C,0.200000*%
%ADD12C,0.120000*%
%ADD13C,0.203200*%
%ADD14C,0.150000*%
G04 APERTURE END LIST*
D10*
D11*
X61722000Y-51562000D02*
X60198000Y-51562000D01*
X60960000Y-50800000D02*
X61722000Y-51562000D01*
X60960000Y-50800000D02*
X60198000Y-51562000D01*
X69965784Y-63500000D02*
G75*
G03X69965784Y-63500000I-6465784J0D01*
G01*
X70684205Y-63500000D02*
G75*
G03X70684205Y-63500000I-7184205J0D01*
G01*
D12*
X73113000Y-61714000D02*
X73113000Y-60714000D01*
X71413000Y-60714000D02*
X71413000Y-61714000D01*
D13*
X59690000Y-47625000D02*
X59690000Y-50165000D01*
X59690000Y-50165000D02*
X67310000Y-50165000D01*
X67310000Y-50165000D02*
X67310000Y-47625000D01*
X67310000Y-47625000D02*
X59690000Y-47625000D01*
D14*
X63000000Y-61700000D02*
G75*
G03X64000000Y-61700000I500000J0D01*
G01*
X63500000Y-61700000D02*
X65000000Y-61700000D01*
X65000000Y-61700000D02*
X65000000Y-65300000D01*
X65000000Y-65300000D02*
X62000000Y-65300000D01*
X62000000Y-65300000D02*
X62000000Y-61700000D01*
X62000000Y-61700000D02*
X63500000Y-61700000D01*
X74370143Y-61380666D02*
X74417762Y-61428285D01*
X74465381Y-61571142D01*
X74465381Y-61666380D01*
X74417762Y-61809238D01*
X74322524Y-61904476D01*
X74227286Y-61952095D01*
X74036810Y-61999714D01*
X73893952Y-61999714D01*
X73703476Y-61952095D01*
X73608238Y-61904476D01*
X73513000Y-61809238D01*
X73465381Y-61666380D01*
X73465381Y-61571142D01*
X73513000Y-61428285D01*
X73560619Y-61380666D01*
X74465381Y-60428285D02*
X74465381Y-60999714D01*
X74465381Y-60714000D02*
X73465381Y-60714000D01*
X73608238Y-60809238D01*
X73703476Y-60904476D01*
X73751095Y-60999714D01*
X71715381Y-67428857D02*
X71715381Y-67333618D01*
X71763000Y-67238380D01*
X71810619Y-67190761D01*
X71905857Y-67143142D01*
X72096333Y-67095523D01*
X72334429Y-67095523D01*
X72524905Y-67143142D01*
X72620143Y-67190761D01*
X72667762Y-67238380D01*
X72715381Y-67333618D01*
X72715381Y-67428857D01*
X72667762Y-67524095D01*
X72620143Y-67571714D01*
X72524905Y-67619333D01*
X72334429Y-67666952D01*
X72096333Y-67666952D01*
X71905857Y-67619333D01*
X71810619Y-67571714D01*
X71763000Y-67524095D01*
X71715381Y-67428857D01*
X72620143Y-66666952D02*
X72667762Y-66619333D01*
X72715381Y-66666952D01*
X72667762Y-66714571D01*
X72620143Y-66666952D01*
X72715381Y-66666952D01*
X72715381Y-65666952D02*
X72715381Y-66238381D01*
X72715381Y-65952667D02*
X71715381Y-65952667D01*
X71858238Y-66047905D01*
X71953476Y-66143143D01*
X72001095Y-66238381D01*
X72048714Y-64809809D02*
X72715381Y-64809809D01*
X72048714Y-65238381D02*
X72572524Y-65238381D01*
X72667762Y-65190762D01*
X72715381Y-65095524D01*
X72715381Y-64952666D01*
X72667762Y-64857428D01*
X72620143Y-64809809D01*
X72191571Y-64000285D02*
X72191571Y-64333619D01*
X72715381Y-64333619D02*
X71715381Y-64333619D01*
X71715381Y-63857428D01*
X63166667Y-50506381D02*
X63166667Y-51220667D01*
X63119047Y-51363524D01*
X63023809Y-51458762D01*
X62880952Y-51506381D01*
X62785714Y-51506381D01*
X64166667Y-51506381D02*
X63595238Y-51506381D01*
X63880952Y-51506381D02*
X63880952Y-50506381D01*
X63785714Y-50649238D01*
X63690476Y-50744476D01*
X63595238Y-50792095D01*
X62738095Y-66152381D02*
X62738095Y-66961905D01*
X62785714Y-67057143D01*
X62833333Y-67104762D01*
X62928571Y-67152381D01*
X63119048Y-67152381D01*
X63214286Y-67104762D01*
X63261905Y-67057143D01*
X63309524Y-66961905D01*
X63309524Y-66152381D01*
X64309524Y-67152381D02*
X63738095Y-67152381D01*
X64023809Y-67152381D02*
X64023809Y-66152381D01*
X63928571Y-66295238D01*
X63833333Y-66390476D01*
X63738095Y-66438095D01*
X60809524Y-60428571D02*
X61142858Y-60428571D01*
X61285715Y-60952381D02*
X60809524Y-60952381D01*
X60809524Y-59952381D01*
X61285715Y-59952381D01*
X61714286Y-60952381D02*
X61714286Y-59952381D01*
X62047620Y-60666667D01*
X62380953Y-59952381D01*
X62380953Y-60952381D01*
X62761905Y-59952381D02*
X63380953Y-59952381D01*
X63047619Y-60333333D01*
X63190477Y-60333333D01*
X63285715Y-60380952D01*
X63333334Y-60428571D01*
X63380953Y-60523810D01*
X63380953Y-60761905D01*
X63333334Y-60857143D01*
X63285715Y-60904762D01*
X63190477Y-60952381D01*
X62904762Y-60952381D01*
X62809524Y-60904762D01*
X62761905Y-60857143D01*
X63761905Y-60047619D02*
X63809524Y-60000000D01*
X63904762Y-59952381D01*
X64142858Y-59952381D01*
X64238096Y-60000000D01*
X64285715Y-60047619D01*
X64333334Y-60142857D01*
X64333334Y-60238095D01*
X64285715Y-60380952D01*
X63714286Y-60952381D01*
X64333334Y-60952381D01*
X65190477Y-60285714D02*
X65190477Y-60952381D01*
X64952381Y-59904762D02*
X64714286Y-60619048D01*
X65333334Y-60619048D01*
X65666667Y-60047619D02*
X65714286Y-60000000D01*
X65809524Y-59952381D01*
X66047620Y-59952381D01*
X66142858Y-60000000D01*
X66190477Y-60047619D01*
X66238096Y-60142857D01*
X66238096Y-60238095D01*
X66190477Y-60380952D01*
X65619048Y-60952381D01*
X66238096Y-60952381D01*
M02*
