G04 #@! TF.FileFunction,Copper,L1,Top,Signal*
%FSLAX46Y46*%
G04 Gerber Fmt 4.6, Leading zero omitted, Abs format (unit mm)*
G04 Created by KiCad (PCBNEW 4.0.7-e2-6376~58~ubuntu16.04.1) date Wed Jan 17 09:18:42 2018*
%MOMM*%
%LPD*%
G01*
G04 APERTURE LIST*
%ADD10C,0.100000*%
%ADD11R,1.250000X1.500000*%
%ADD12R,1.651000X1.651000*%
%ADD13C,1.651000*%
%ADD14R,1.500000X0.450000*%
%ADD15C,3.302000*%
%ADD16C,0.254000*%
G04 APERTURE END LIST*
D10*
D11*
X72263000Y-59964000D03*
X72263000Y-62464000D03*
D12*
X60960000Y-48895000D03*
D13*
X63500000Y-48895000D03*
X66040000Y-48895000D03*
D14*
X61150000Y-62500000D03*
X61150000Y-63500000D03*
X61150000Y-64500000D03*
X65850000Y-64500000D03*
X65850000Y-63500000D03*
X65850000Y-62500000D03*
D15*
X53975000Y-53975000D03*
X73025000Y-53975000D03*
X73025000Y-73025000D03*
X53975000Y-73025000D03*
D16*
X60960000Y-48895000D02*
X60960000Y-47625000D01*
X64770000Y-47879000D02*
X64770000Y-62500000D01*
X64008000Y-47117000D02*
X64770000Y-47879000D01*
X61468000Y-47117000D02*
X64008000Y-47117000D01*
X60960000Y-47625000D02*
X61468000Y-47117000D01*
X64770000Y-62500000D02*
X64770000Y-62484000D01*
X64770000Y-62484000D02*
X64770000Y-62500000D01*
X72263000Y-59964000D02*
X69703000Y-59964000D01*
X67167000Y-62500000D02*
X65850000Y-62500000D01*
X69703000Y-59964000D02*
X67167000Y-62500000D01*
X62179700Y-63500000D02*
X62179700Y-62500000D01*
X61150000Y-63500000D02*
X62179700Y-63500000D01*
X61150000Y-62500000D02*
X62179700Y-62500000D01*
X65850000Y-62500000D02*
X64770000Y-62500000D01*
X64770000Y-62500000D02*
X64605700Y-62500000D01*
X64605700Y-62500000D02*
X62179700Y-62500000D01*
X65850000Y-63500000D02*
X71227000Y-63500000D01*
X71227000Y-63500000D02*
X72263000Y-62464000D01*
X65850000Y-63500000D02*
X64516000Y-63500000D01*
X64516000Y-63500000D02*
X63500000Y-64516000D01*
X63500000Y-64516000D02*
X63484000Y-64500000D01*
X61150000Y-64500000D02*
X59547000Y-64500000D01*
X63500000Y-54737000D02*
X63500000Y-48895000D01*
X59055000Y-59182000D02*
X63500000Y-54737000D01*
X59055000Y-64008000D02*
X59055000Y-59182000D01*
X59547000Y-64500000D02*
X59055000Y-64008000D01*
X63484000Y-64500000D02*
X61150000Y-64500000D01*
X65850000Y-64500000D02*
X73168000Y-64500000D01*
X66040000Y-53213000D02*
X66040000Y-48895000D01*
X70231000Y-57404000D02*
X66040000Y-53213000D01*
X72898000Y-57404000D02*
X70231000Y-57404000D01*
X74295000Y-58801000D02*
X72898000Y-57404000D01*
X74295000Y-63373000D02*
X74295000Y-58801000D01*
X73168000Y-64500000D02*
X74295000Y-63373000D01*
M02*
